{
  "accessors": [
    {
      "bufferView": 2,
      "componentType": 5126,
      "count": 864,
      "max": [
        0.8557559251785278,
        0.9788769483566284,
        1.034596562385559
      ],
      "min": [
        -0.36910396814346313,
        -0.9788563251495361,
        -0.7862268090248108
      ],
      "type": "VEC3"
    },
    {
      "bufferView": 2,
      "byteOffset": 10368,
      "componentType": 5126,
      "count": 864,
      "max": [
        0.9999409317970276,
        0.9942066669464111,
        0.9999470710754395
      ],
      "min": [
        -0.9950927495956421,
        -0.9944502115249634,
        -0.949563205242157
      ],
      "type": "VEC3"
    },
    {
      "bufferView": 1,
      "componentType": 5126,
      "count": 864,
      "max": [
        0.947711169719696,
        0.45614248514175415
      ],
      "min": [
        0.051728010177612305,
        0.04787299036979675
      ],
      "type": "VEC2"
    },
    {
      "bufferView": 0,
      "componentType": 5125,
      "count": 1284,
      "type": "SCALAR"
    },
    {
      "bufferView": 2,
      "byteOffset": 20736,
      "componentType": 5126,
      "count": 864,
      "max": [
        1.9512443542480469,
        0.9784814715385437,
        0.8433367013931274
      ],
      "min": [
        -2.9239847660064697,
        -0.9769663214683533,
        -1.4407517910003662
      ],
      "type": "VEC3"
    },
    {
      "bufferView": 2,
      "byteOffset": 31104,
      "componentType": 5126,
      "count": 864,
      "max": [
        0.9991971850395203,
        0.9984161853790283,
        0.9999009370803833
      ],
      "min": [
        -0.9761466383934021,
        -0.998755156993866,
        -0.9989645481109619
      ],
      "type": "VEC3"
    },
    {
      "bufferView": 1,
      "byteOffset": 6912,
      "componentType": 5126,
      "count": 864,
      "max": [
        0.9759687781333923,
        0.8142983317375183
      ],
      "min": [
        0.052152298390865326,
        0.11782769113779068
      ],
      "type": "VEC2"
    },
    {
      "bufferView": 0,
      "byteOffset": 5136,
      "componentType": 5125,
      "count": 1284,
      "type": "SCALAR"
    },
    {
      "bufferView": 2,
      "byteOffset": 41472,
      "componentType": 5126,
      "count": 576,
      "max": [
        2.253605365753174,
        3.0191407203674316,
        1.9262480735778809
      ],
      "min": [
        -1.3421090841293335,
        -1.512244701385498,
        -0.3701064884662628
      ],
      "type": "VEC3"
    },
    {
      "bufferView": 2,
      "byteOffset": 48384,
      "componentType": 5126,
      "count": 576,
      "max": [
        0.3557548522949219,
        -0.09840485453605652,
        0.9839437007904053
      ],
      "min": [
        -0.04195306822657585,
        -0.6939611434936523,
        0.6667556166648865
      ],
      "type": "VEC3"
    },
    {
      "bufferView": 1,
      "byteOffset": 13824,
      "componentType": 5126,
      "count": 576,
      "max": [
        0.42240211367607117,
        0.9999350309371948
      ],
      "min": [
        6.49734356557019e-05,
        6.498410948552191e-05
      ],
      "type": "VEC2"
    },
    {
      "bufferView": 0,
      "byteOffset": 10272,
      "componentType": 5125,
      "count": 852,
      "type": "SCALAR"
    },
    {
      "bufferView": 2,
      "byteOffset": 55296,
      "componentType": 5126,
      "count": 1728,
      "max": [
        0.5739121437072754,
        1.794399380683899,
        0.7620245814323425
      ],
      "min": [
        -0.5583683252334595,
        -0.6093805432319641,
        -0.7516407370567322
      ],
      "type": "VEC3"
    },
    {
      "bufferView": 2,
      "byteOffset": 76032,
      "componentType": 5126,
      "count": 1728,
      "max": [
        0.9990108013153076,
        0.994168221950531,
        0.9916168451309204
      ],
      "min": [
        -0.9991013407707214,
        -0.994168221950531,
        -0.9916137456893921
      ],
      "type": "VEC3"
    },
    {
      "bufferView": 1,
      "byteOffset": 18432,
      "componentType": 5126,
      "count": 1728,
      "max": [
        0.875,
        1.0
      ],
      "min": [
        0.125,
        0.0
      ],
      "type": "VEC2"
    },
    {
      "bufferView": 0,
      "byteOffset": 13680,
      "componentType": 5125,
      "count": 2568,
      "type": "SCALAR"
    },
    {
      "bufferView": 2,
      "byteOffset": 96768,
      "componentType": 5126,
      "count": 174,
      "max": [
        2.1085286140441895,
        2.541513442993164,
        0.5775807499885559
      ],
      "min": [
        -0.8235796093940735,
        -1.4444338083267212,
        -1.5961778163909912
      ],
      "type": "VEC3"
    },
    {
      "bufferView": 2,
      "byteOffset": 98856,
      "componentType": 5126,
      "count": 174,
      "max": [
        0.9439845681190491,
        0.9287543296813965,
        0.9880048632621765
      ],
      "min": [
        -0.9396306276321411,
        -0.9287542104721069,
        -0.9770349860191345
      ],
      "type": "VEC3"
    },
    {
      "bufferView": 1,
      "byteOffset": 32256,
      "componentType": 5126,
      "count": 174,
      "max": [
        0.9751465916633606,
        0.8641759157180786
      ],
      "min": [
        0.6640884876251221,
        0.135824054479599
      ],
      "type": "VEC2"
    },
    {
      "bufferView": 0,
      "byteOffset": 23952,
      "componentType": 5125,
      "count": 552,
      "type": "SCALAR"
    },
    {
      "bufferView": 2,
      "byteOffset": 100944,
      "componentType": 5126,
      "count": 172,
      "max": [
        0.9920967817306519,
        5.435237884521484,
        -0.020687758922576904
      ],
      "min": [
        -0.11929170042276382,
        -2.5789473056793213,
        -1.529249668121338
      ],
      "type": "VEC3"
    },
    {
      "bufferView": 2,
      "byteOffset": 103008,
      "componentType": 5126,
      "count": 172,
      "max": [
        0.9924753308296204,
        0.8948541283607483,
        0.9723899364471436
      ],
      "min": [
        -0.9738925695419312,
        -0.8948453068733215,
        -0.9509907364845276
      ],
      "type": "VEC3"
    },
    {
      "bufferView": 1,
      "byteOffset": 33648,
      "componentType": 5126,
      "count": 172,
      "max": [
        0.6184369325637817,
        0.8641759157180786
      ],
      "min": [
        0.36188486218452454,
        0.135824054479599
      ],
      "type": "VEC2"
    },
    {
      "bufferView": 0,
      "byteOffset": 26160,
      "componentType": 5125,
      "count": 552,
      "type": "SCALAR"
    },
    {
      "bufferView": 2,
      "byteOffset": 105072,
      "componentType": 5126,
      "count": 174,
      "max": [
        0.8677480220794678,
        5.113297939300537,
        0.13020259141921997
      ],
      "min": [
        -2.5122034549713135,
        -2.42496395111084,
        -1.5338938236236572
      ],
      "type": "VEC3"
    },
    {
      "bufferView": 2,
      "byteOffset": 107160,
      "componentType": 5126,
      "count": 174,
      "max": [
        0.8566436171531677,
        0.8005539774894714,
        0.8955457210540771
      ],
      "min": [
        -0.8336021304130554,
        -0.8005537986755371,
        -0.9158193469047546
      ],
      "type": "VEC3"
    },
    {
      "bufferView": 1,
      "byteOffset": 35024,
      "componentType": 5126,
      "count": 174,
      "max": [
        0.26261329650878906,
        0.8641759157180786
      ],
      "min": [
        0.0522456020116806,
        0.135824054479599
      ],
      "type": "VEC2"
    },
    {
      "bufferView": 0,
      "byteOffset": 28368,
      "componentType": 5125,
      "count": 552,
      "type": "SCALAR"
    },
    {
      "bufferView": 2,
      "byteOffset": 109248,
      "componentType": 5126,
      "count": 275,
      "max": [
        0.32999396324157715,
        1.7397606372833252,
        0.2882847487926483
      ],
      "min": [
        -2.5775034427642822,
        -0.21075113117694855,
        -1.3976240158081055
      ],
      "type": "VEC3"
    },
    {
      "bufferView": 2,
      "byteOffset": 112548,
      "componentType": 5126,
      "count": 275,
      "max": [
        0.8216986060142517,
        0.9918907284736633,
        0.9985275268554688
      ],
      "min": [
        -0.7339333295822144,
        -0.9920276999473572,
        -0.9688726663589478
      ],
      "type": "VEC3"
    },
    {
      "bufferView": 1,
      "byteOffset": 36416,
      "componentType": 5126,
      "count": 275,
      "max": [
        0.5327175855636597,
        0.10873839259147644
      ],
      "min": [
        0.40832820534706116,
        0.014567524194717407
      ],
      "type": "VEC2"
    },
    {
      "bufferView": 0,
      "byteOffset": 30576,
      "componentType": 5125,
      "count": 936,
      "type": "SCALAR"
    }
  ],
  "asset": {
    "extras": {
      "author": "Leomaderart (https://sketchfab.com/leomaderart)",
      "license": "CC-BY-4.0 (http://creativecommons.org/licenses/by/4.0/)",
      "source": "https://sketchfab.com/3d-models/fly-low-poly-bc214680306e460d8ec72db056d76858",
      "title": "Fly - Low Poly"
    },
    "generator": "Sketchfab-16.16.0",
    "version": "2.0"
  },
  "bufferViews": [
    {
      "buffer": 0,
      "byteLength": 34320,
      "name": "floatBufferViews",
      "target": 34963
    },
    {
      "buffer": 0,
      "byteLength": 38616,
      "byteOffset": 34320,
      "byteStride": 8,
      "name": "floatBufferViews",
      "target": 34962
    },
    {
      "buffer": 0,
      "byteLength": 115848,
      "byteOffset": 72936,
      "byteStride": 12,
      "name": "floatBufferViews",
      "target": 34962
    }
  ],
  "buffers": [
    {
      "byteLength": 188784,
      "uri": "scene.bin"
    }
  ],
  "extensionsRequired": [
    "KHR_materials_pbrSpecularGlossiness"
  ],
  "extensionsUsed": [
    "KHR_materials_pbrSpecularGlossiness"
  ],
  "images": [
    {
      "uri": "textures/Material.001_diffuse.png"
    },
    {
      "uri": "textures/Material.005_diffuse.png"
    },
    {
      "uri": "textures/Material.004_diffuse.png"
    },
    {
      "uri": "textures/Material.002_diffuse.png"
    }
  ],
  "materials": [
    {
      "doubleSided": true,
      "extensions": {
        "KHR_materials_pbrSpecularGlossiness": {
          "diffuseFactor": [
            1.0,
            1.0,
            1.0,
            1.0
          ],
          "diffuseTexture": {
            "index": 0
          },
          "glossinessFactor": 0.8863557505222314,
          "specularFactor": [
            0.0,
            0.0,
            0.0
          ]
        }
      },
      "name": "Material.001"
    },
    {
      "doubleSided": true,
      "extensions": {
        "KHR_materials_pbrSpecularGlossiness": {
          "diffuseFactor": [
            1.0,
            1.0,
            1.0,
            1.0
          ],
          "diffuseTexture": {
            "index": 1
          },
          "glossinessFactor": 0.8559907019077885,
          "specularFactor": [
            0.0,
            0.0,
            0.0
          ]
        }
      },
      "name": "Material.005"
    },
    {
      "doubleSided": true,
      "extensions": {
        "KHR_materials_pbrSpecularGlossiness": {
          "diffuseFactor": [
            1.0,
            1.0,
            1.0,
            1.0
          ],
          "diffuseTexture": {
            "index": 2
          },
          "glossinessFactor": 0.8681367213535657,
          "specularFactor": [
            0.0,
            0.0,
            0.0
          ]
        }
      },
      "name": "Material.004"
    },
    {
      "doubleSided": true,
      "extensions": {
        "KHR_materials_pbrSpecularGlossiness": {
          "diffuseFactor": [
            0.23265453799042102,
            0.0002535748487854564,
            0.0002535748487854564,
            1.0
          ],
          "glossinessFactor": 0.7041654588355744,
          "specularFactor": [
            0.48963133497172273,
            0.34083385203336103,
            0.0
          ]
        }
      },
      "name": "Material.003"
    },
    {
      "doubleSided": true,
      "extensions": {
        "KHR_materials_pbrSpecularGlossiness": {
          "diffuseFactor": [
            1.0,
            1.0,
            1.0,
            1.0
          ],
          "diffuseTexture": {
            "index": 3
          },
          "glossinessFactor": 0.0,
          "specularFactor": [
            0.0,
            0.0,
            0.0
          ]
        }
      },
      "name": "Material.002"
    }
  ],
  "meshes": [
    {
      "name": "Cube_Material.001_0",
      "primitives": [
        {
          "attributes": {
            "NORMAL": 1,
            "POSITION": 0,
            "TEXCOORD_0": 2
          },
          "indices": 3,
          "material": 0,
          "mode": 4
        }
      ]
    },
    {
      "name": "Cube.001_Material.005_0",
      "primitives": [
        {
          "attributes": {
            "NORMAL": 5,
            "POSITION": 4,
            "TEXCOORD_0": 6
          },
          "indices": 7,
          "material": 1,
          "mode": 4
        }
      ]
    },
    {
      "name": "Cube.003_Material.004_0",
      "primitives": [
        {
          "attributes": {
            "NORMAL": 9,
            "POSITION": 8,
            "TEXCOORD_0": 10
          },
          "indices": 11,
          "material": 2,
          "mode": 4
        }
      ]
    },
    {
      "name": "Cube.004_Material.003_0",
      "primitives": [
        {
          "attributes": {
            "NORMAL": 13,
            "POSITION": 12,
            "TEXCOORD_0": 14
          },
          "indices": 15,
          "material": 3,
          "mode": 4
        }
      ]
    },
    {
      "name": "NurbsPath_Material.002_0",
      "primitives": [
        {
          "attributes": {
            "NORMAL": 17,
            "POSITION": 16,
            "TEXCOORD_0": 18
          },
          "indices": 19,
          "material": 4,
          "mode": 4
        }
      ]
    },
    {
      "name": "NurbsPath.001_Material.002_0",
      "primitives": [
        {
          "attributes": {
            "NORMAL": 21,
            "POSITION": 20,
            "TEXCOORD_0": 22
          },
          "indices": 23,
          "material": 4,
          "mode": 4
        }
      ]
    },
    {
      "name": "NurbsPath.002_Material.002_0",
      "primitives": [
        {
          "attributes": {
            "NORMAL": 25,
            "POSITION": 24,
            "TEXCOORD_0": 26
          },
          "indices": 27,
          "material": 4,
          "mode": 4
        }
      ]
    },
    {
      "name": "NurbsPath.003_Material.002_0",
      "primitives": [
        {
          "attributes": {
            "NORMAL": 29,
            "POSITION": 28,
            "TEXCOORD_0": 30
          },
          "indices": 31,
          "material": 4,
          "mode": 4
        }
      ]
    }
  ],
  "nodes": [
    {
      "children": [
        1
      ],
      "matrix": [
        1.0,
        0.0,
        0.0,
        0.0,
        0.0,
        2.220446049250313e-16,
        -1.0,
        0.0,
        0.0,
        1.0,
        2.220446049250313e-16,
        0.0,
        0.0,
        0.0,
        0.0,
        1.0
      ],
      "name": "Sketchfab_model"
    },
    {
      "children": [
        2
      ],
      "matrix": [
        0.009999999776482582,
        0.0,
        0.0,
        0.0,
        0.0,
        0.0,
        0.009999999776482582,
        0.0,
        0.0,
        -0.009999999776482582,
        0.0,
        0.0,
        0.0,
        0.0,
        0.0,
        1.0
      ],
      "name": "Fly.fbx"
    },
    {
      "children": [
        3,
        5,
        7,
        9,
        11,
        13,
        15,
        17
      ],
      "name": "RootNode"
    },
    {
      "children": [
        4
      ],
      "matrix": [
        3.8262973657181905e-06,
        -9.718390168674852e-15,
        -87.53547668457024,
        0.0,
        -87.53547668457014,
        -3.8262973657181905e-06,
        -3.826297370577386e-06,
        0.0,
        -3.826297370577386e-06,
        87.53547668457024,
        -1.7493102303614734e-13,
        0.0,
        -0.4585146903991699,
        283.39434814453125,
        -17.422788619995117,
        1.0
      ],
      "name": "Cube"
    },
    {
      "mesh": 0,
      "name": "Cube_Material.001_0"
    },
    {
      "children": [
        6
      ],
      "matrix": [
        3.4255350325543412e-06,
        -8.700496276399256e-15,
        -78.36710357666009,
        0.0,
        -78.36710357666001,
        -3.4255350325543412e-06,
        -3.4255350369045894e-06,
        0.0,
        -3.4255350369045894e-06,
        78.36710357666009,
        -1.566089329751866e-13,
        0.0,
        -3.5808563232421875,
        305.593017578125,
        132.01596069335938,
        1.0
      ],
      "name": "Cube.001"
    },
    {
      "mesh": 1,
      "name": "Cube.001_Material.005_0"
    },
    {
      "children": [
        8
      ],
      "matrix": [
        -1.459463010545709,
        -17.49396542542783,
        -100.21314069765535,
        0.0,
        -130.7794937656209,
        -50.0505449134968,
        10.641821307116299,
        0.0,
        -39.457111259968705,
        99.527436146405,
        -16.799626483307737,
        0.0,
        124.225830078125,
        343.9850158691406,
        282.7467041015625,
        1.0
      ],
      "name": "Cube.003"
    },
    {
      "mesh": 2,
      "name": "Cube.003_Material.004_0"
    },
    {
      "children": [
        10
      ],
      "matrix": [
        3.235325188155868e-06,
        -8.21738341163624e-15,
        -74.01560974121087,
        0.0,
        -74.0156097412108,
        -3.235325188155868e-06,
        -3.23532519226456e-06,
        0.0,
        -3.23532519226456e-06,
        74.01560974121087,
        -1.4791290140945233e-13,
        0.0,
        43.39642333984375,
        318.6855773925781,
        -38.65994644165039,
        1.0
      ],
      "name": "Cube.004"
    },
    {
      "mesh": 3,
      "name": "Cube.004_Material.003_0"
    },
    {
      "children": [
        12
      ],
      "matrix": [
        4.371139006309477e-06,
        -1.1102230246251565e-14,
        -99.99999999999991,
        0.0,
        -99.99999999999982,
        -4.371139006309477e-06,
        -4.371139011860592e-06,
        0.0,
        -4.371139011860592e-06,
        99.99999999999991,
        -1.9984014443252818e-13,
        0.0,
        51.27313232421875,
        233.32249450683594,
        -24.52121353149414,
        1.0
      ],
      "name": "NurbsPath"
    },
    {
      "mesh": 4,
      "name": "NurbsPath_Material.002_0"
    },
    {
      "children": [
        14
      ],
      "matrix": [
        4.371139006309477e-06,
        -1.1102230246251565e-14,
        -99.99999999999991,
        0.0,
        -99.99999999999982,
        -4.371139006309477e-06,
        -4.371139011860592e-06,
        0.0,
        -4.371139011860592e-06,
        99.99999999999991,
        -1.9984014443252818e-13,
        0.0,
        139.2336883544922,
        248.97283935546875,
        88.07856750488281,
        1.0
      ],
      "name": "NurbsPath.001"
    },
    {
      "mesh": 5,
      "name": "NurbsPath.001_Material.002_0"
    },
    {
      "children": [
        16
      ],
      "matrix": [
        4.371139006309477e-06,
        -1.1102230246251565e-14,
        -99.99999999999991,
        0.0,
        -99.99999999999982,
        -4.371139006309477e-06,
        -4.371139011860592e-06,
        0.0,
        -4.371139011860592e-06,
        99.99999999999991,
        -1.9984014443252818e-13,
        0.0,
        130.8358612060547,
        243.3743438720703,
        194.46168518066406,
        1.0
      ],
      "name": "NurbsPath.002"
    },
    {
      "mesh": 6,
      "name": "NurbsPath.002_Material.002_0"
    },
    {
      "children": [
        18
      ],
      "matrix": [
        1.05759403497079,
        -18.652519684844034,
        -4.644970534246968,
        -0.0,
        -18.6875346966824,
        0.09182780844291757,
        -4.6236343308903995,
        -0.0,
        -4.501991866926733,
        -4.762962372963603,
        18.101292366875516,
        -0.0,
        10.516977310180664,
        251.2290496826172,
        -92.60971069335938,
        1.0
      ],
      "name": "NurbsPath.003"
    },
    {
      "mesh": 7,
      "name": "NurbsPath.003_Material.002_0"
    }
  ],
  "samplers": [
    {
      "magFilter": 9729,
      "minFilter": 9987,
      "wrapS": 10497,
      "wrapT": 10497
    }
  ],
  "scene": 0,
  "scenes": [
    {
      "name": "Sketchfab_Scene",
      "nodes": [
        0
      ]
    }
  ],
  "textures": [
    {
      "sampler": 0,
      "source": 0
    },
    {
      "sampler": 0,
      "source": 1
    },
    {
      "sampler": 0,
      "source": 2
    },
    {
      "sampler": 0,
      "source": 3
    }
  ]
}
