{"asset":{"generator":"glTF-Transform v4.2.1","version":"2.0","extras":{"author":"Leomaderart (https://sketchfab.com/leomaderart)","license":"CC-BY-4.0 (http://creativecommons.org/licenses/by/4.0/)","source":"https://sketchfab.com/3d-models/fly-low-poly-bc214680306e460d8ec72db056d76858","title":"Fly - Low Poly"}},"accessors":[{"type":"VEC3","componentType":5126,"count":864,"max":[0.8557559251785278,0.9788769483566284,1.034596562385559],"min":[-0.36910396814346313,-0.9788563251495361,-0.7862268090248108],"bufferView":0,"byteOffset":0},{"type":"VEC3","componentType":5126,"count":864,"bufferView":0,"byteOffset":12},{"type":"VEC2","componentType":5126,"count":864,"bufferView":0,"byteOffset":24},{"type":"SCALAR","componentType":5125,"count":1284,"bufferView":1,"byteOffset":0},{"type":"SCALAR","componentType":5125,"count":1284,"bufferView":1,"byteOffset":5136},{"type":"SCALAR","componentType":5125,"count":852,"bufferView":1,"byteOffset":10272},{"type":"SCALAR","componentType":5125,"count":2568,"bufferView":1,"byteOffset":13680},{"type":"SCALAR","componentType":5125,"count":552,"bufferView":1,"byteOffset":23952},{"type":"SCALAR","componentType":5125,"count":552,"bufferView":1,"byteOffset":26160},{"type":"SCALAR","componentType":5125,"count":552,"bufferView":1,"byteOffset":28368},{"type":"SCALAR","componentType":5125,"count":936,"bufferView":1,"byteOffset":30576},{"type":"VEC3","componentType":5126,"count":864,"max":[1.9512443542480469,0.9784814715385437,0.8433367013931274],"min":[-2.9239847660064697,-0.9769663214683533,-1.4407517910003662],"bufferView":2,"byteOffset":0},{"type":"VEC3","componentType":5126,"count":864,"bufferView":2,"byteOffset":12},{"type":"VEC2","componentType":5126,"count":864,"bufferView":2,"byteOffset":24},{"type":"VEC3","componentType":5126,"count":576,"max":[2.253605365753174,3.0191407203674316,1.9262480735778809],"min":[-1.3421090841293335,-1.512244701385498,-0.3701064884662628],"bufferView":3,"byteOffset":0},{"type":"VEC3","componentType":5126,"count":576,"bufferView":3,"byteOffset":12},{"type":"VEC2","componentType":5126,"count":576,"bufferView":3,"byteOffset":24},{"type":"VEC3","componentType":5126,"count":1728,"max":[0.5739121437072754,1.794399380683899,0.7620245814323425],"min":[-0.5583683252334595,-0.6093805432319641,-0.7516407370567322],"bufferView":4,"byteOffset":0},{"type":"VEC3","componentType":5126,"count":1728,"bufferView":4,"byteOffset":12},{"type":"VEC2","componentType":5126,"count":1728,"bufferView":4,"byteOffset":24},{"type":"VEC3","componentType":5126,"count":174,"max":[2.1085286140441895,2.541513442993164,0.5775807499885559],"min":[-0.8235796093940735,-1.4444338083267212,-1.5961778163909912],"bufferView":5,"byteOffset":0},{"type":"VEC3","componentType":5126,"count":174,"bufferView":5,"byteOffset":12},{"type":"VEC2","componentType":5126,"count":174,"bufferView":5,"byteOffset":24},{"type":"VEC3","componentType":5126,"count":172,"max":[0.9920967817306519,5.435237884521484,-0.020687758922576904],"min":[-0.11929170042276382,-2.5789473056793213,-1.529249668121338],"bufferView":6,"byteOffset":0},{"type":"VEC3","componentType":5126,"count":172,"bufferView":6,"byteOffset":12},{"type":"VEC2","componentType":5126,"count":172,"bufferView":6,"byteOffset":24},{"type":"VEC3","componentType":5126,"count":174,"max":[0.8677480220794678,5.113297939300537,0.13020259141921997],"min":[-2.5122034549713135,-2.42496395111084,-1.5338938236236572],"bufferView":7,"byteOffset":0},{"type":"VEC3","componentType":5126,"count":174,"bufferView":7,"byteOffset":12},{"type":"VEC2","componentType":5126,"count":174,"bufferView":7,"byteOffset":24},{"type":"VEC3","componentType":5126,"count":275,"max":[0.32999396324157715,1.7397606372833252,0.2882847487926483],"min":[-2.5775034427642822,-0.21075113117694855,-1.3976240158081055],"bufferView":8,"byteOffset":0},{"type":"VEC3","componentType":5126,"count":275,"bufferView":8,"byteOffset":12},{"type":"VEC2","componentType":5126,"count":275,"bufferView":8,"byteOffset":24}],"bufferViews":[{"buffer":0,"byteOffset":0,"byteLength":27648,"byteStride":32,"target":34962},{"buffer":0,"byteOffset":27648,"byteLength":34320,"target":34963},{"buffer":0,"byteOffset":61968,"byteLength":27648,"byteStride":32,"target":34962},{"buffer":0,"byteOffset":89616,"byteLength":18432,"byteStride":32,"target":34962},{"buffer":0,"byteOffset":108048,"byteLength":55296,"byteStride":32,"target":34962},{"buffer":0,"byteOffset":163344,"byteLength":5568,"byteStride":32,"target":34962},{"buffer":0,"byteOffset":168912,"byteLength":5504,"byteStride":32,"target":34962},{"buffer":0,"byteOffset":174416,"byteLength":5568,"byteStride":32,"target":34962},{"buffer":0,"byteOffset":179984,"byteLength":8800,"byteStride":32,"target":34962}],"samplers":[{"magFilter":9729,"minFilter":9987,"wrapS":10497,"wrapT":10497}],"textures":[{"source":0,"sampler":0},{"source":1,"sampler":0},{"source":2,"sampler":0},{"source":3,"sampler":0}],"images":[{"mimeType":"image/png","uri":"textures/Material.001_diffuse.png"},{"mimeType":"image/png","uri":"textures/Material.005_diffuse.png"},{"mimeType":"image/png","uri":"textures/Material.004_diffuse.png"},{"mimeType":"image/png","uri":"textures/Material.002_diffuse.png"}],"buffers":[{"uri":"scene.bin","byteLength":188784}],"materials":[{"name":"Material.001","doubleSided":true,"pbrMetallicRoughness":{"roughnessFactor":0.11364424947776863,"metallicFactor":0,"baseColorTexture":{"index":0}},"extensions":{"KHR_materials_ior":{"ior":1000},"KHR_materials_specular":{"specularColorFactor":[0,0,0]}}},{"name":"Material.005","doubleSided":true,"pbrMetallicRoughness":{"roughnessFactor":0.14400929809221152,"metallicFactor":0,"baseColorTexture":{"index":1}},"extensions":{"KHR_materials_ior":{"ior":1000},"KHR_materials_specular":{"specularColorFactor":[0,0,0]}}},{"name":"Material.004","doubleSided":true,"pbrMetallicRoughness":{"roughnessFactor":0.13186327864643432,"metallicFactor":0,"baseColorTexture":{"index":2}},"extensions":{"KHR_materials_ior":{"ior":1000},"KHR_materials_specular":{"specularColorFactor":[0,0,0]}}},{"name":"Material.003","doubleSided":true,"pbrMetallicRoughness":{"baseColorFactor":[0.23265453799042102,0.0002535748487854564,0.0002535748487854564,1],"roughnessFactor":0.29583454116442565,"metallicFactor":0},"extensions":{"KHR_materials_ior":{"ior":1000},"KHR_materials_specular":{"specularColorFactor":[0.48963133497172273,0.34083385203336103,0]}}},{"name":"Material.002","doubleSided":true,"pbrMetallicRoughness":{"metallicFactor":0,"baseColorTexture":{"index":3}},"extensions":{"KHR_materials_ior":{"ior":1000},"KHR_materials_specular":{"specularColorFactor":[0,0,0]}}}],"meshes":[{"name":"Cube_Material.001_0","primitives":[{"attributes":{"NORMAL":1,"POSITION":0,"TEXCOORD_0":2},"mode":4,"material":0,"indices":3}]},{"name":"Cube.001_Material.005_0","primitives":[{"attributes":{"NORMAL":12,"POSITION":11,"TEXCOORD_0":13},"mode":4,"material":1,"indices":4}]},{"name":"Cube.003_Material.004_0","primitives":[{"attributes":{"NORMAL":15,"POSITION":14,"TEXCOORD_0":16},"mode":4,"material":2,"indices":5}]},{"name":"Cube.004_Material.003_0","primitives":[{"attributes":{"NORMAL":18,"POSITION":17,"TEXCOORD_0":19},"mode":4,"material":3,"indices":6}]},{"name":"NurbsPath_Material.002_0","primitives":[{"attributes":{"NORMAL":21,"POSITION":20,"TEXCOORD_0":22},"mode":4,"material":4,"indices":7}]},{"name":"NurbsPath.001_Material.002_0","primitives":[{"attributes":{"NORMAL":24,"POSITION":23,"TEXCOORD_0":25},"mode":4,"material":4,"indices":8}]},{"name":"NurbsPath.002_Material.002_0","primitives":[{"attributes":{"NORMAL":27,"POSITION":26,"TEXCOORD_0":28},"mode":4,"material":4,"indices":9}]},{"name":"NurbsPath.003_Material.002_0","primitives":[{"attributes":{"NORMAL":30,"POSITION":29,"TEXCOORD_0":31},"mode":4,"material":4,"indices":10}]}],"nodes":[{"name":"Sketchfab_model","rotation":[-0.7071067811865475,0,0,0.7071067811865476],"children":[1]},{"name":"Fly.fbx","rotation":[0.7071067811865475,0,0,0.7071067811865476],"scale":[0.009999999776482582,0.009999999776482582,0.009999999776482582],"children":[2]},{"name":"RootNode","children":[3,5,7,9,11,13,15,17]},{"name":"Cube","translation":[-0.4585146903991699,283.39434814453125,-17.422788619995117],"rotation":[0.500000021855695,-0.499999978144305,-0.49999999999999967,-0.49999999999999967],"scale":[87.53547668457031,87.53547668457031,87.53547668457031],"children":[4]},{"name":"Cube_Material.001_0","mesh":0},{"name":"Cube.001","translation":[-3.5808563232421875,305.593017578125,132.01596069335938],"rotation":[0.500000021855695,-0.49999997814430497,-0.49999999999999956,-0.49999999999999956],"scale":[78.36710357666016,78.36710357666017,78.36710357666016],"children":[6]},{"name":"Cube.001_Material.005_0","mesh":1},{"name":"Cube.003","translation":[124.225830078125,343.9850158691406,282.7467041015625],"rotation":[0.6117742923327248,-0.45082176196964496,-0.5513005681224271,-0.34432490145684724],"scale":[101.73908996582033,140.43354797363284,108.3734359741211],"children":[8]},{"name":"Cube.003_Material.004_0","mesh":2},{"name":"Cube.004","translation":[43.39642333984375,318.6855773925781,-38.65994644165039],"rotation":[0.500000021855695,-0.499999978144305,-0.49999999999999956,-0.49999999999999956],"scale":[74.01560974121094,74.01560974121094,74.01560974121094],"children":[10]},{"name":"Cube.004_Material.003_0","mesh":3},{"name":"NurbsPath","translation":[51.27313232421875,233.32249450683594,-24.52121353149414],"rotation":[0.500000021855695,-0.49999997814430497,-0.49999999999999967,-0.49999999999999967],"scale":[100,100.00000000000001,100],"children":[12]},{"name":"NurbsPath_Material.002_0","mesh":4},{"name":"NurbsPath.001","translation":[139.2336883544922,248.97283935546875,88.07856750488281],"rotation":[0.500000021855695,-0.49999997814430497,-0.49999999999999967,-0.49999999999999967],"scale":[100,100.00000000000001,100],"children":[14]},{"name":"NurbsPath.001_Material.002_0","mesh":5},{"name":"NurbsPath.002","translation":[130.8358612060547,243.3743438720703,194.46168518066406],"rotation":[0.500000021855695,-0.49999997814430497,-0.49999999999999967,-0.49999999999999967],"scale":[100,100.00000000000001,100],"children":[16]},{"name":"NurbsPath.002_Material.002_0","mesh":6},{"name":"NurbsPath.003","translation":[10.516977310180664,251.2290496826172,-92.60971069335938],"rotation":[0.0026321126295940052,-0.17280074839477028,0.7054134164988235,0.6874044552959849],"scale":[-19.251253128051754,19.251243591308597,19.25124740600586],"children":[18]},{"name":"NurbsPath.003_Material.002_0","mesh":7}],"scenes":[{"name":"Sketchfab_Scene","nodes":[0]}],"scene":0,"extensionsUsed":["KHR_materials_ior","KHR_materials_specular"]}